<svg width="20" height="21" viewBox="0 0 20 21" fill="none" xmlns="http://www.w3.org/2000/svg">
  <path
    d="M5.65878 10.0078C5.34628 10.0078 5.11191 9.77344 5.11191 9.46094C5.11191 9.14844 5.34628 8.91406 5.65878 8.91406C5.97128 8.91406 6.20566 9.14844 6.20566 9.46094C6.20566 9.77344 5.89316 10.0078 5.65878 10.0078ZM10.9713 10.0078C10.6588 10.0078 10.4244 9.77344 10.4244 9.46094C10.4244 9.14844 10.6588 8.91406 10.9713 8.91406C11.2838 8.91406 11.5182 9.14844 11.5182 9.46094C11.5182 9.77344 11.2838 10.0078 10.9713 10.0078ZM15.7369 3.60156C16.9088 3.60156 17.8463 4.53906 17.8463 5.71094V12.4297C17.8463 13.6016 16.9088 14.4609 15.7369 14.4609H11.7525L10.3463 17.6641C10.3463 17.6641 10.2682 17.9766 10.0338 17.9766C9.79941 17.9766 9.72128 17.6641 9.72128 17.6641L8.31503 14.4609H4.33066C3.15878 14.4609 2.22128 13.5234 2.22128 12.4297V5.71094C2.22128 4.53906 3.15878 3.60156 4.33066 3.60156H15.7369ZM7.14316 9.53906C7.14316 9.53906 7.29941 8.13281 5.97128 7.97656C5.97128 7.97656 5.34628 7.97656 5.11191 8.36719V6.88281C5.11191 6.88281 4.25253 6.88281 4.17441 6.88281V10.7109H5.11191V10.4766C5.11191 10.4766 5.42441 10.7891 5.89316 10.7891C5.81503 10.7891 7.14316 10.7891 7.14316 9.53906ZM8.78378 8.13281C8.78378 8.13281 8.86191 6.88281 7.45566 6.80469V7.66406C7.45566 7.66406 7.92441 7.74219 7.92441 8.13281V10.7109H8.86191V8.13281H8.78378ZM10.9713 10.7891C11.8307 10.7891 12.5338 10.1641 12.5338 9.38281C12.5338 8.60156 11.8307 7.97656 10.9713 7.97656C10.1119 7.97656 9.40878 8.60156 9.40878 9.38281C9.40878 10.1641 10.1119 10.7891 10.9713 10.7891ZM15.9713 10.7891V8.05469H15.0338V8.36719C14.7213 7.97656 14.2525 8.05469 14.2525 8.05469C13.0025 8.13281 13.0025 9.30469 13.0025 9.30469V9.69531C13.0025 10.7891 14.1744 10.8672 14.1744 10.8672C14.9557 10.8672 15.1119 10.4766 15.1119 10.4766C15.1119 11.3359 14.565 11.2578 14.565 11.2578H14.3307V12.1172H14.7213C15.9713 12.1172 15.9713 10.7891 15.9713 10.7891ZM14.4869 10.0078C14.1744 10.0078 13.94 9.77344 13.94 9.46094C13.94 9.14844 14.1744 8.91406 14.4869 8.91406C14.7994 8.91406 15.0338 9.14844 15.0338 9.46094C15.0338 9.77344 14.7994 10.0078 14.4869 10.0078Z"
    fill="#898F9C"
  ></path>
</svg>
