<svg
  width="175"
  height="24"
  viewBox="0 0 175 24"
  fill="none"
  xmlns="http://www.w3.org/2000/svg"
  class="header_logo"
>
  <path d="M3.09476 6.39206H0.65155V18.3983H3.09476V6.39206Z" fill="currentColor"></path>
  <path
    d="M8.65571 6.39324V7.54272C9.14435 7.00489 10.5625 6.14014 12.209 6.14014C13.9829 6.14014 15.4754 6.93106 16.4793 8.13327C17.584 7.03652 18.8959 6.14014 21.0842 6.14014C22.8104 6.14014 24.3772 6.9047 25.381 8.15964C26.13 9.07711 26.4858 10.2529 26.4858 12.2724V18.4047H24.0426V11.8875C24.0426 10.6589 23.7876 9.99458 23.3468 9.48838C22.8051 8.85037 21.9818 8.43909 21.0842 8.43909C19.3367 8.43909 18.2001 9.33547 17.4034 10.1528C17.5309 10.738 17.6106 11.4288 17.6106 12.2724V18.4047H15.1674V11.8875C15.1674 10.6589 14.9124 9.99458 14.4716 9.48838C13.9298 8.85037 13.0588 8.43909 12.1293 8.43909C10.6368 8.43909 9.42586 9.33547 8.73007 10.1528V18.4047H6.28687V6.39324H8.65571Z"
    fill="currentColor"
  ></path>
  <path
    d="M31.3243 23.9427H28.881V6.39473H31.25V7.49147C32.3547 6.54764 33.6665 6.13635 35.0317 6.13635C36.163 6.13635 37.1668 6.41582 37.9901 6.90091C39.8172 7.97657 41.1024 9.99079 41.1024 12.3952C41.1024 14.7943 39.8436 16.7875 38.0112 17.8631C37.1879 18.3482 36.0566 18.654 34.9732 18.654C33.5338 18.654 32.2962 18.1952 31.319 17.3517V23.9427H31.3243ZM31.3243 14.6467C32.1476 15.7434 33.4117 16.3604 34.6439 16.3604C36.9861 16.3604 38.6593 14.5465 38.6593 12.4005C38.6593 10.3072 37.1136 8.44058 34.7714 8.44058C33.3055 8.44058 32.0678 9.18404 31.3243 10.1542V14.6467Z"
    fill="currentColor"
  ></path>
  <path
    d="M52.1611 17.3027C51.1839 18.1727 49.8721 18.6578 48.4273 18.6578C47.3438 18.6578 46.2125 18.352 45.3893 17.8669C43.5622 16.7912 42.3034 14.7981 42.3034 12.399C42.3034 9.99984 43.5887 7.98035 45.4158 6.9047C46.239 6.4196 47.2429 6.14014 48.3742 6.14014C49.7393 6.14014 51.0511 6.55142 52.1559 7.49525V6.39323H54.5248V18.3994H52.1559V17.3027H52.1611ZM52.0815 10.1475C51.3326 9.17728 50.1003 8.43382 48.6344 8.43382C46.2922 8.43382 44.7466 10.3004 44.7466 12.3937C44.7466 14.5397 46.4197 16.3536 48.7619 16.3536C49.9994 16.3536 51.2582 15.7419 52.0815 14.6399V10.1475Z"
    fill="currentColor"
  ></path>
  <path
    d="M68.7585 15.8474C67.675 17.4556 65.6939 18.6578 63.3781 18.6578C59.6443 18.6578 56.9196 15.9739 56.9196 12.399C56.9196 8.824 59.5965 6.14014 63.2506 6.14014C65.3858 6.14014 67.1651 7.1367 68.3707 8.64473L66.6446 10.0737C65.8744 9.25637 64.7644 8.43908 63.2454 8.43908C60.9296 8.43908 59.3575 10.2002 59.3575 12.399C59.3575 14.5978 60.9774 16.3588 63.3728 16.3588C65.1468 16.3588 66.3047 15.3359 67.027 14.4659L68.7585 15.8474Z"
    fill="currentColor"
  ></path>
  <path
    d="M78.5525 17.8425C77.7026 18.4067 76.8263 18.6598 75.8755 18.6598C74.6646 18.6598 73.5333 18.1483 72.8109 17.2784C72.2426 16.5876 71.9876 15.6701 71.9876 14.1884V8.56762H69.1567V6.39522H71.9876V2.53552H74.4309V6.39522H78.0319V8.56762H74.4309V14.2675C74.4309 15.2114 74.5584 15.5963 74.8187 15.9021C75.1267 16.2607 75.5888 16.4399 76.1305 16.4399C76.6458 16.4399 77.1875 16.2607 77.5964 16.0075L78.5525 17.8425Z"
    fill="currentColor"
  ></path>
  <path
    d="M83.5347 15.0895C84.5332 15.0895 85.3299 15.8804 85.3299 16.8717C85.3299 17.863 84.5332 18.6539 83.5347 18.6539C82.5361 18.6539 81.7394 17.863 81.7394 16.8717C81.7394 15.8751 82.5361 15.0895 83.5347 15.0895Z"
    fill="#3C8CFF"
  ></path>
  <path
    d="M1.87457 0.0605164C2.8731 0.0605164 3.6698 0.851438 3.6698 1.84272C3.6698 2.83402 2.8731 3.62494 1.87457 3.62494C0.876042 3.62494 0.0793457 2.83402 0.0793457 1.84272C0.0793457 0.851438 0.876042 0.0605164 1.87457 0.0605164Z"
    fill="#3C8CFF"
  ></path>
  <path
    d="M99.5589 15.8474C98.4754 17.4556 96.4943 18.6578 94.1786 18.6578C90.4447 18.6578 87.72 15.9739 87.72 12.399C87.72 8.824 90.3969 6.14014 94.0511 6.14014C96.1862 6.14014 97.9655 7.1367 99.1712 8.64473L97.445 10.0737C96.6749 9.25637 95.5648 8.43908 94.0458 8.43908C91.73 8.43908 90.1579 10.2002 90.1579 12.399C90.1579 14.5978 91.7779 16.3588 94.1733 16.3588C95.9472 16.3588 97.1051 15.3359 97.8275 14.4659L99.5589 15.8474Z"
    fill="currentColor"
  ></path>
  <path
    d="M110.214 17.3027C109.237 18.1727 107.925 18.6578 106.48 18.6578C105.396 18.6578 104.265 18.352 103.442 17.8669C101.615 16.7912 100.356 14.7981 100.356 12.399C100.356 9.99984 101.641 7.98035 103.468 6.9047C104.292 6.4196 105.295 6.14014 106.427 6.14014C107.792 6.14014 109.104 6.55142 110.208 7.49525V6.39323H112.583V18.3994H110.214V17.3027ZM110.134 10.1475C109.385 9.17728 108.153 8.43382 106.687 8.43382C104.345 8.43382 102.799 10.3004 102.799 12.3937C102.799 14.5397 104.472 16.3536 106.815 16.3536C108.052 16.3536 109.311 15.7419 110.134 14.6399V10.1475Z"
    fill="currentColor"
  ></path>
  <path
    d="M117.74 6.39324V7.54272C118.228 7.00489 119.646 6.14014 121.292 6.14014C123.066 6.14014 124.559 6.93106 125.563 8.13327C126.667 7.03652 127.98 6.14014 130.169 6.14014C131.895 6.14014 133.461 6.9047 134.465 8.15964C135.214 9.07711 135.57 10.2529 135.57 12.2724V18.4047H133.126V11.8875C133.126 10.6589 132.871 9.99458 132.431 9.48838C131.889 8.85037 131.066 8.43909 130.169 8.43909C128.421 8.43909 127.284 9.33547 126.487 10.1528C126.615 10.738 126.694 11.4288 126.694 12.2724V18.4047H124.251V11.8875C124.251 10.6589 123.996 9.99458 123.556 9.48838C123.013 8.85037 122.138 8.43909 121.213 8.43909C119.721 8.43909 118.51 9.33547 117.814 10.1528V18.4047H115.371V6.39324H117.74Z"
    fill="currentColor"
  ></path>
  <path
    d="M140.43 23.9427H137.987V6.39473H140.355V7.49147C141.461 6.54764 142.773 6.13635 144.138 6.13635C145.269 6.13635 146.273 6.41582 147.096 6.90091C148.922 7.97657 150.208 9.99079 150.208 12.3952C150.208 14.7943 148.949 16.7875 147.117 17.8631C146.293 18.3482 145.163 18.654 144.079 18.654C142.639 18.654 141.402 18.1952 140.425 17.3517V23.9427H140.43ZM140.43 14.6467C141.254 15.7434 142.518 16.3604 143.749 16.3604C146.092 16.3604 147.765 14.5465 147.765 12.4005C147.765 10.3072 146.22 8.44058 143.877 8.44058C142.411 8.44058 141.173 9.18404 140.43 10.1542V14.6467Z"
    fill="currentColor"
  ></path>
  <path
    d="M153.31 16.6372C152.561 15.7197 152.205 14.5438 152.205 12.5244V6.39206H154.649V12.9093C154.649 14.1378 154.904 14.8022 155.344 15.3084C155.886 15.9464 156.757 16.3577 157.687 16.3577C159.179 16.3577 160.389 15.4613 161.086 14.644V6.39206H163.528V18.3983H161.16V17.3015C160.618 17.813 159.279 18.6567 157.606 18.6567C155.88 18.6567 154.314 17.8867 153.31 16.6372Z"
    fill="currentColor"
  ></path>
  <path
    d="M170.407 18.6578C168.479 18.6578 166.827 18.0725 165.515 16.9968L166.773 15.3359C167.905 16.1532 169.09 16.5382 170.354 16.5382C171.411 16.5382 172.462 15.9739 172.462 15.0301C172.462 12.6785 165.897 14.1126 165.897 9.76783C165.897 7.23689 168.213 6.14014 170.374 6.14014C172.101 6.14014 173.439 6.72543 174.39 7.46889L173.205 9.12983C172.409 8.592 171.506 8.25981 170.529 8.25981C169.345 8.25981 168.34 8.824 168.34 9.76783C168.34 11.8137 174.905 10.6642 174.905 15.0301C174.911 17.2763 172.748 18.6578 170.407 18.6578Z"
    fill="currentColor"
  ></path>
</svg>
